<svg width="11" height="13" viewBox="0 0 11 13" fill="none" xmlns="http://www.w3.org/2000/svg">
<mask id="path-1-inside-1" fill="white">
<path fill-rule="evenodd" clip-rule="evenodd" d="M11 4H0V13H11V4ZM4.88867 7.33301H5.11089H5.88867H6.11089V8.33301V8.77745V9.77745H5.88867H5.11089H4.88867V8.77745V8.33301V7.33301Z"/>
</mask>
<path fill-rule="evenodd" clip-rule="evenodd" d="M11 4H0V13H11V4ZM4.88867 7.33301H5.11089H5.88867H6.11089V8.33301V8.77745V9.77745H5.88867H5.11089H4.88867V8.77745V8.33301V7.33301Z" fill="white"/>
<path d="M0 4V3H-1V4H0ZM11 4H12V3H11V4ZM0 13H-1V14H0V13ZM11 13V14H12V13H11ZM4.88867 7.33301V6.33301H3.88867V7.33301H4.88867ZM6.11089 7.33301H7.11089V6.33301H6.11089V7.33301ZM6.11089 9.77745V10.7775H7.11089V9.77745H6.11089ZM4.88867 9.77745H3.88867V10.7775H4.88867V9.77745ZM0 5H11V3H0V5ZM1 13V4H-1V13H1ZM11 12H0V14H11V12ZM10 4V13H12V4H10ZM5.11089 6.33301H4.88867V8.33301H5.11089V6.33301ZM5.88867 6.33301H5.11089V8.33301H5.88867V6.33301ZM6.11089 6.33301H5.88867V8.33301H6.11089V6.33301ZM7.11089 8.33301V7.33301H5.11089V8.33301H7.11089ZM7.11089 8.77745V8.33301H5.11089V8.77745H7.11089ZM7.11089 9.77745V8.77745H5.11089V9.77745H7.11089ZM5.88867 10.7775H6.11089V8.77745H5.88867V10.7775ZM5.11089 10.7775H5.88867V8.77745H5.11089V10.7775ZM4.88867 10.7775H5.11089V8.77745H4.88867V10.7775ZM3.88867 8.77745V9.77745H5.88867V8.77745H3.88867ZM3.88867 8.33301V8.77745H5.88867V8.33301H3.88867ZM3.88867 7.33301V8.33301H5.88867V7.33301H3.88867Z" fill="white" mask="url(#path-1-inside-1)"/>
<path fill-rule="evenodd" clip-rule="evenodd" d="M1 0H10V5H8V2H3V5H1V0Z" fill="white"/>
</svg>
